<svg xmlns="http://www.w3.org/2000/svg" xmlns:xlink="http://www.w3.org/1999/xlink" class="bubble_icon" width="9px" height="20px" viewBox="0 0 9 20">
    <g fill="none">
      <path class="background" fill="#ffffff" d="M8,1 L9,1 L9,20 L8,20 L8,18 C7.807,15.161 7.124,12.233 5.950,9.218 C5.046,6.893 3.504,4.733 1.325,2.738 L1.325,2.738 C0.917,2.365 0.89,1.732 1.263,1.325 C1.452,1.118 1.72,1 2,1 L8,1 Z"></path>
      <path class="border_1x" fill="#d7e3ec" d="M9,1 L2,1 C1.72,1 1.452,1.118 1.263,1.325 C0.89,1.732 0.917,2.365 1.325,2.738 C3.504,4.733 5.046,6.893 5.95,9.218 C7.124,12.233 7.807,15.161 8,18 L8,20 L9,20 L9,1 Z M2,0 L9,0 L9,20 L7,20 L7,20 L7.002,18.068 C6.816,15.333 6.156,12.504 5.018,9.58 C4.172,7.406 2.72,5.371 0.649,3.475 C-0.165,2.729 -0.221,1.464 0.525,0.649 C0.904,0.236 1.439,0 2,0 Z"></path>
    </g>
  </svg>